<svg xmlns="http://www.w3.org/2000/svg" viewBox="0 0 2267.72 2267.72"><circle cx="1133.86" cy="1133.86" r="1119.69" fill="#fafafa"/><path d="M1972.78 1160.92v35.24L272 1497.63v-35.2l1700.8-301.5zm0-511.42v35.24L272 986.22V951l1700.8-301.5zM435.4 1229.43l-8.37 1.48v151.6l-52.33 9.23V1015.7l90-15.87c39.77-7 48.66 10.3 48.66 59.94v80.93c0 39.4-5.75 60.37-27.2 70.62l49.2 152.12-56.5 10zm17.27-57c5.75-1 8.37-5.8 8.37-13.9v-90.64c0-8.1-2.62-13-8.37-12l-25.68 4.5V1177zm101.1-188.33l52.33-9.23V1351l-52.33 9.23zm124.02 192.34c-33 5.8-40.3-11.78-40.3-54.4v-92.26c0-42.62 7.32-63.34 40.3-69.15l56.5-10c33-5.8 40.3 12.32 40.3 54.94v51.26l-52.33 9.23v-46.94c0-8.1-2.62-11.95-9.94-10.65l-12.56 2.2c-7.33 1.3-9.94 6.07-9.94 14.16V1108c0 8.1 2.62 11.95 9.94 10.66l34.54-6.1c33-5.8 40.3 12.32 40.3 54.94v93.34c0 42.63-7.33 63.34-40.3 69.16l-56.5 10c-33 5.8-40.3-12.32-40.3-54.94v-50.72l52.33-9.23v46.4c0 8.1 2.62 11.95 9.94 10.66l12.56-2.22c7.33-1.3 9.94-6.07 9.94-14.16V1181c0-8.1-2.62-11.95-9.94-10.66zm128.82-236.9l108.84-19.2v54l-56.5 10v104.13l52.85-9.32v54l-52.8 9.2v110.07l58.6-10.33v54l-110.94 19.56zm225.8 171.53l61.57-10.86v38.47l-11.94 2.1v31.55c0 30.4-5.23 45.17-28.73 49.3l-44.78 7.9c-23.5 4.15-28.73-8.78-28.73-39.18v-71.95c0-26.16 8.58-42.3 32.46-49.2-22.4 2-25.75-12.77-25.75-38.94v-23.08c0-30.4 5.22-45.17 28.73-49.3l36.57-6.45c23.5-4.15 28.73 8.78 28.73 39.18v33.86l-37.3 6.58V998c0-3.46-1.86-6.2-6-5.5l-7.1 1.25a7.34 7.34 0 0 0-6.34 7.66v36.93c0 5.77 1.86 8.52 7.1 7.6l20.9-3.68v38.47l-27.6 4.87c-5.22.92-7.1 4.33-7.1 10.1v85c0 5.77 1.86 8.52 7.1 7.6l13.43-2.37c5.22-.92 7.1-4.33 7.1-10.1v-28.47l-12.3 2.17zm165.57-26.34c-33 5.8-40.3-11.78-40.3-54.4V938c0-42.62 7.33-63.34 40.3-69.15l56.5-10c33-5.8 40.3 12.32 40.3 54.94v51.26l-52.32 9.23v-46.86c0-8.1-2.62-11.95-9.94-10.65L1220 919c-7.33 1.3-9.94 6.07-9.94 14.16v83.1c0 8.1 2.6 11.95 9.94 10.66l34.54-6.1c33-5.8 40.3 12.32 40.3 54.94v93.34c0 42.63-7.33 63.34-40.3 69.15l-56.5 10c-33 5.8-40.3-12.32-40.3-54.95v-50.72l52.33-9.23v46.4c0 8.1 2.6 11.95 9.94 10.66l12.56-2.2c7.32-1.3 9.94-6.07 9.94-14.16v-84.7c0-8.1-2.62-11.95-9.94-10.66zm219.88-40.92l-38.72 6.83v164l-52.33 9.23V847.8l52.33-9.23v158.1l38.72-6.83v-158.1l52.33-9.23v376.07l-52.33 9.23zm84.42-226.94l52.33-9.23v376.07l-52.33 9.23zm190.57 239.4l-2.1-180.38v-92.26l50.24-8.86v376.07l-67.5 11.9-39.25-266.1 2.1 180.38v92.26l-50.24 8.86V802.08l69.08-12.18zm80.43-287.2l108.84-19.2v54l-56.52 10v104.06l52.85-9.32v54l-52.85 9.32V1082l58.6-10.33v54l-110.94 19.56zm-956.72 722.28l60.84-10.73-.36 21.3-36.57 6.45-.36 21.3 31-5.48-.36 21.3-31 5.47-1 39.45-24.58 4.33zm139.76-24.65l24.58-4.33-2.36 103.38-24.56 4.34zm109.26-19.26l24.58-4.33-2 82.1 36.26-6.4-.36 21.3-60.84 10.73zm136.62-24.1l25.5-4.5 14 41.88 5.3 16.5.6-.1 5.78-18.45 15.77-47.13 25.5-4.5-2.36 103.38-23 4.06 1.2-34.43a354.32 354.32 0 0 1 3.66-36.76l-.46.08-8.33 25.55-14.8 40-9.22 1.63-12.85-35.12-7.2-22.8-.46.08c1 10.28 2.55 25.22 2.34 35.7l-.9 34.38-22.43 4zm182.46 38.65c6.5 6.3 15.35 9.8 23 8.45 7.07-1.25 11.1-5.3 10.13-10.8-.78-4.45-5.6-5.67-13.27-8.75l-9.54-3.9c-10.25-4.2-17.05-10.46-19.24-22.9-3.17-18 10.75-35.16 31-38.74 11.67-2.06 23.92 1.8 33.77 10l-12.82 17.15c-6-4.18-11.7-7-18.14-5.83-7.07 1.24-9.92 5.7-9.08 10.47.73 4.15 5.36 5.23 14.24 8.9l10.22 4.05c10.7 4.14 15.66 9.76 17.72 21.43 3.23 18.28-9.2 35.84-33.17 40.07-12.75 2.25-27-.62-39.95-12.76z" fill="#231f20"/></svg>