<svg id="Layer_1" data-name="Layer 1" xmlns="http://www.w3.org/2000/svg" viewBox="0 0 2267.72 2267.72"><defs><style>.cls-1{fill:#fafafa;}.cls-2{fill:#231f20;}</style></defs><title>Rise and Shine Films Logo v2.0Artboard 1</title><circle class="cls-1" cx="1133.86" cy="1133.86" r="1119.69"/><polygon class="cls-2" points="1972.78 1160.92 1972.78 1196.16 271.99 1497.63 271.99 1462.42 1972.78 1160.92"/><polygon class="cls-2" points="1972.78 649.51 1972.78 684.75 271.99 986.22 271.99 951.01 1972.78 649.51"/><path class="cls-2" d="M435.41,1229.43l-8.37,1.48v151.61l-52.33,9.23V1015.69l90-15.87c39.77-7,48.66,10.3,48.66,59.94v80.93c0,39.39-5.75,60.37-27.21,70.62l49.19,152.12-56.51,10Zm17.27-57c5.75-1,8.37-5.79,8.37-13.89V1067.9c0-8.09-2.62-13-8.37-12L427,1060.41V1177Z"/><path class="cls-2" d="M553.78,984.11l52.33-9.23V1351l-52.33,9.23Z"/><path class="cls-2" d="M677.79,1176.44c-33,5.81-40.29-11.78-40.29-54.4v-92.26c0-42.62,7.32-63.34,40.29-69.15l56.51-10c33-5.81,40.29,12.32,40.29,54.94v51.26l-52.33,9.23v-46.94c0-8.09-2.62-11.95-9.94-10.65l-12.56,2.21c-7.33,1.29-9.94,6.07-9.94,14.16V1108c0,8.09,2.62,11.95,9.94,10.66l34.54-6.09c33-5.81,40.29,12.32,40.29,54.94v93.34c0,42.63-7.33,63.34-40.29,69.16l-56.51,10c-33,5.81-40.29-12.32-40.29-54.94v-50.72l52.33-9.23v46.4c0,8.09,2.62,11.95,9.94,10.66l12.56-2.22c7.33-1.29,9.94-6.07,9.94-14.16V1181c0-8.09-2.62-11.95-9.94-10.66Z"/><path class="cls-2" d="M806.62,939.53l108.84-19.19v54l-56.51,10v104.13l52.85-9.32v54L859,1142.34v110.07l58.61-10.33v54l-110.94,19.56Z"/><path class="cls-2" d="M1032.43,1111.06,1094,1100.2v38.47l-11.94,2.11v31.55c0,30.39-5.23,45.17-28.73,49.31l-44.78,7.89c-23.51,4.15-28.73-8.78-28.73-39.18v-71.95c0-26.16,8.58-42.3,32.46-49.2-22.39,2-25.75-12.77-25.75-38.94v-23.08c0-30.39,5.22-45.17,28.73-49.31l36.57-6.45c23.51-4.15,28.73,8.78,28.73,39.18v33.86l-37.31,6.58V998c0-3.46-1.86-6.21-6-5.49l-7.09,1.25a7.34,7.34,0,0,0-6.34,7.66v36.93c0,5.77,1.86,8.52,7.09,7.6l20.9-3.68v38.47l-27.61,4.87c-5.22.92-7.09,4.33-7.09,10.1v85c0,5.77,1.86,8.52,7.09,7.6l13.43-2.37c5.22-.92,7.09-4.33,7.09-10.1v-28.47l-12.31,2.17Z"/><path class="cls-2" d="M1198,1084.72c-33,5.81-40.29-11.78-40.29-54.4V938c0-42.62,7.33-63.34,40.29-69.15l56.51-10c33-5.81,40.29,12.32,40.29,54.94v51.26l-52.32,9.23V927.42c0-8.09-2.62-11.95-9.94-10.65L1220,919c-7.33,1.29-9.94,6.07-9.94,14.16v83.09c0,8.09,2.61,11.95,9.94,10.66l34.54-6.09c33-5.81,40.29,12.32,40.29,54.94v93.34c0,42.63-7.33,63.34-40.29,69.15l-56.51,10c-33,5.81-40.29-12.32-40.29-54.95v-50.72l52.33-9.23v46.4c0,8.09,2.61,11.95,9.94,10.66l12.56-2.21c7.32-1.29,9.94-6.07,9.94-14.16v-84.71c0-8.09-2.62-11.95-9.94-10.66Z"/><path class="cls-2" d="M1417.88,1043.79l-38.72,6.83v164l-52.33,9.23V847.8l52.33-9.23V996.66l38.72-6.83V831.75l52.33-9.23v376.07l-52.33,9.23Z"/><path class="cls-2" d="M1502.29,816.86l52.33-9.23V1183.7l-52.33,9.23Z"/><path class="cls-2" d="M1692.87,1056.27l-2.09-180.38V783.63l50.24-8.86v376.07l-67.5,11.9-39.25-266.09,2.09,180.38v92.26l-50.24,8.86V802.08l69.08-12.18Z"/><path class="cls-2" d="M1773.3,769.07l108.84-19.19v54l-56.52,10V917.94l52.85-9.32v54l-52.85,9.32V1082l58.61-10.33v54l-110.94,19.56Z"/><path class="cls-2" d="M816.58,1491.35l60.84-10.73-.36,21.3-36.57,6.45-.36,21.29,31-5.48-.36,21.29-31,5.47-1,39.45-24.58,4.33Z"/><path class="cls-2" d="M956.34,1466.7l24.58-4.33-2.36,103.38L954,1570.09Z"/><path class="cls-2" d="M1065.6,1447.44l24.58-4.33-2,82.09,36.26-6.4-.36,21.29-60.84,10.73Z"/><path class="cls-2" d="M1202.22,1423.35l25.5-4.49,14,41.88,5.29,16.5.61-.11,5.78-18.45,15.77-47.13,25.5-4.5-2.36,103.38-23,4.06,1.21-34.43a354.32,354.32,0,0,1,3.66-36.76l-.46.08-8.33,25.55-14.8,40-9.22,1.63-12.85-35.12-7.19-22.81-.46.08c1,10.28,2.55,25.22,2.34,35.7l-.91,34.38-22.43,4Z"/><path class="cls-2" d="M1384.68,1462c6.49,6.3,15.35,9.81,23,8.45,7.07-1.25,11.11-5.29,10.13-10.81-.78-4.45-5.59-5.67-13.27-8.75L1395,1447c-10.25-4.21-17.05-10.46-19.24-22.9-3.17-18,10.75-35.16,31-38.74,11.67-2.06,23.92,1.81,33.77,10l-12.82,17.15c-6-4.18-11.69-7-18.14-5.83-7.07,1.24-9.92,5.71-9.08,10.47.73,4.15,5.36,5.23,14.24,8.9l10.22,4.05c10.71,4.14,15.66,9.76,17.72,21.43,3.23,18.28-9.21,35.84-33.17,40.07-12.75,2.25-27-.62-39.95-12.76Z"/></svg>